<svg xmlns="http://www.w3.org/2000/svg" xmlns:xlink="http://www.w3.org/1999/xlink" height="99.36717224121094" width="81.86512118018936">
  <defs>
    <rect id="rect-1" opacity="1" x="0" y="64.36717224121094" width="81.8651211801895" height="35"/>
    <mask id="mask-2" maskUnits="userSpaceOnUse" maskContentUnits="userSpaceOnUse">
      <rect opacity="1" x="0" y="0" width="81.86512118018936" height="99.36717224121094" fill="Black"/>
      <use xlink:href="#rect-1" fill="White"/>
    </mask>
  </defs>
  <g opacity="1">
    <g opacity="1">
      <g/>
      <g mask="url(#mask-2)">
        <g opacity="1">
          <g opacity="1">
            <g opacity="1">
              <g opacity="1">
                <path fill="rgb(255,255,255)" fill-opacity="1" opacity="1" fill-rule="evenodd" d="M70.57387450064522 80.60004895353951L61.77622425322147 98.0315558028546L63.46808007003373 98.0315558028546L65.59981839921718 93.71648730970391L73.75456343625227 93.71648730970391L73.28084380754484 92.8260763507998L66.03970091158837 92.8260763507998L71.31829106004261 81.96991196723815L79.20233916638774 98.0315558028546L80.89419498320001 98.0315558028546L72.06270761944 80.60004895353951L70.57387450064522 80.60004895353951Z"/>
              </g>
              <g opacity="1">
                <path fill="rgb(255,255,255)" fill-opacity="1" opacity="1" fill-rule="evenodd" d="M59.610648807702006 80.53155580285484L43.470344315313355 80.53155580285484L43.470344315313355 81.45621333710142L50.74532432760593 81.45621333710142L50.74532432760593 98.03155580285478L52.33566879540943 98.03155580285478L52.33566879540943 81.45621333710142L59.610648807702006 81.45621333710142L59.610648807702006 80.53155580285484Z"/>
              </g>
              <g opacity="1">
                <path fill="rgb(255,255,255)" fill-opacity="1" opacity="1" fill-rule="evenodd" d="M9.76857644441323 80.60004895353951L0.9709261969894669 98.0315558028546L2.6627820138017277 98.0315558028546L4.794520342985177 93.71648730970391L12.949265380020273 93.71648730970391L12.475545751312847 92.8260763507998L5.234402855356368 92.8260763507998L10.512993003810621 81.96991196723815L18.39704111015576 98.0315558028546L20.088896926968022 98.0315558028546L11.257409563208011 80.60004895353951L9.76857644441323 80.60004895353951Z"/>
              </g>
              <g opacity="1">
                <path fill="rgb(255,255,255)" fill-opacity="1" opacity="1" fill-rule="evenodd" d="M27.059342892234326 80.53155580285484L27.059342892234326 98.03155580285478L41.609302916819544 98.03155580285478L41.609302916819544 97.1068982686082L28.649687360037824 97.1068982686082L28.649687360037824 80.53155580285484L27.059342892234326 80.53155580285484Z"/>
              </g>
            </g>
            <g opacity="1">
              <path fill="rgb(255,255,255)" fill-opacity="1" opacity="1" fill-rule="evenodd" d="M21.49316850025116 73.68224334716797L21.49316850025116 71.42196655273438L21.86536088306366 71.42196655273438L21.86536088306366 73.88772583007812C21.25629105884491 74.4356689453125 20.37653031665741 74.77813720703125 19.49676957446991 74.77813720703125C17.56805863696991 74.77813720703125 16.01154008228241 73.2370376586914 16.01154008228241 71.35347747802734C16.01154008228241 69.46991729736328 17.56805863696991 67.96306610107422 19.49676957446991 67.96306610107422C20.41034379321991 67.96306610107422 21.25629105884491 68.30553436279297 21.86536088306366 68.85347747802734L21.62848344165741 69.16169738769531C21.05328812915741 68.64799499511719 20.30884232837616 68.33977508544922 19.49676957446991 68.33977508544922C17.80493607837616 68.33977508544922 16.41760697681366 69.6753921508789 16.41760697681366 71.35347747802734C16.41760697681366 73.03156280517578 17.80493607837616 74.36717224121094 19.49676957446991 74.36717224121094C20.24115434009491 74.36717224121094 20.95178666431366 74.12744903564453 21.49316850025116 73.68224334716797ZM43.25037064868866 67.96306610107422L43.65643754321991 67.96306610107422L43.65643754321991 71.96991729736328C43.65643754321991 73.75074005126953 42.67517533618866 74.77813720703125 40.94946732837616 74.77813720703125C39.25763383228241 74.77813720703125 38.24249711353241 73.75074005126953 38.24249711353241 71.96991729736328L38.24249711353241 67.96306610107422L38.64856400806366 67.96306610107422L38.64856400806366 71.96991729736328C38.64856400806366 73.47676086425781 39.49445023853241 74.36717224121094 40.94946732837616 74.36717224121094C42.40448441821991 74.36717224121094 43.25037064868866 73.47676086425781 43.25037064868866 71.96991729736328L43.25037064868866 67.96306610107422ZM62.36835160571991 67.96306610107422C60.43964066821991 67.96306610107422 58.88312211353241 69.46991729736328 58.88312211353241 71.35347747802734C58.88312211353241 73.2370376586914 60.43964066821991 74.77813720703125 62.36835160571991 74.77813720703125C64.29706254321991 74.77813720703125 65.85358109790741 73.2370376586914 65.85358109790741 71.35347747802734C65.85358109790741 69.46991729736328 64.29706254321991 67.96306610107422 62.36835160571991 67.96306610107422ZM32.72705521900116 74.77812957763672L32.25336137134491 74.77812957763672L30.66302934009491 72.51785278320312C30.45996537525116 72.5521011352539 30.29077592212616 72.5521011352539 30.08777299243866 72.5521011352539L28.12524857837616 72.5521011352539L28.12524857837616 74.8123779296875L27.71918168384491 74.8123779296875L27.71918168384491 67.99730682373047L30.08777299243866 67.99730682373047C31.74579301196991 67.99730682373047 32.69324174243866 68.81922149658203 32.69324174243866 70.22333526611328C32.69324174243866 71.3877182006836 32.11798539478241 72.14114379882812 31.03522172290741 72.41511535644531L32.72705521900116 74.77812957763672ZM49.51025834400116 67.997314453125L49.51025834400116 74.77813720703125L49.91632523853241 74.77813720703125L49.91632523853241 72.51786041259766L51.87884965259491 72.51786041259766C53.53686967212616 72.51786041259766 54.45050492603241 71.6959457397461 54.45050492603241 70.22334289550781C54.45050492603241 68.81922912597656 53.50305619556366 67.997314453125 51.87884965259491 67.997314453125L49.51025834400116 67.997314453125ZM28.12518754321991 72.10690307617188L28.12518754321991 68.3740234375L30.12158646900116 68.3740234375C31.50891557056366 68.3740234375 32.32098832446991 69.02471160888672 32.32098832446991 70.22333526611328C32.32098832446991 71.45621490478516 31.50891557056366 72.10690307617188 30.12158646900116 72.10690307617188L28.12518754321991 72.10690307617188ZM51.87884965259491 68.3740234375L49.91632523853241 68.3740234375L49.91632523853241 72.10690307617188L51.87884965259491 72.10690307617188C53.26617875415741 72.10690307617188 54.07831254321991 71.45621490478516 54.07831254321991 70.22333526611328C54.07831254321991 69.02471160888672 53.26617875415741 68.3740234375 51.87884965259491 68.3740234375ZM65.44751420337616 71.38772583007812C65.44751420337616 69.70964050292969 64.06024613696991 68.3740234375 62.36835160571991 68.3740234375C60.71033158618866 68.3740234375 59.28918900806366 69.70964050292969 59.28918900806366 71.38772583007812C59.28918900806366 73.06580352783203 60.67651810962616 74.40142059326172 62.36835160571991 74.40142059326172C64.06024613696991 74.40142059326172 65.44751420337616 73.06580352783203 65.44751420337616 71.38772583007812Z"/>
            </g>
          </g>
        </g>
      </g>
    </g>
    <g opacity="1">
      <g opacity="1">
        <path fill="rgb(255,255,255)" fill-opacity="1" opacity="1" fill-rule="evenodd" d="M39.38367142993866 48.39533996582031L52.30078568775116 54.41552734375L65.15942826587616 48.39533996582031L68.37414994556366 34.7768440246582L59.43152299243866 23.84697723388672L45.11163773853241 23.84697723388672L36.16901078540741 34.7768440246582L39.38367142993866 48.39533996582031ZM52.30078568775116 52.8958740234375L40.55261674243866 47.40171813964844L37.68866410571991 35.127532958984375L45.81299271900116 25.249740600585938L58.84698930103241 25.249740600585938L66.91290726978241 35.06908416748047L64.04895463306366 47.40171813964844L52.30078568775116 52.8958740234375Z"/>
      </g>
      <g opacity="1">
        <path fill="rgb(255,255,255)" fill-opacity="1" opacity="1" fill-rule="evenodd" d="M28.04468217212616 53.714149475097656L40.96179642993866 59.734344482421875L53.82043900806366 53.77259826660156L57.03516068775116 40.15410614013672L48.09253373462616 29.224239349365234L33.77264848071991 29.224239349365234L24.83002152759491 40.09565734863281L28.04468217212616 53.714149475097656ZM40.96179642993866 58.27313232421875L29.21362748462616 52.77897644042969L26.29120316821991 40.446346282958984L34.41553178150116 30.568553924560547L47.44952836353241 30.568553924560547L55.57391801196991 40.446346282958984L52.70990434009491 52.77897644042969L40.96179642993866 58.27313232421875Z"/>
      </g>
      <g opacity="1">
        <path fill="rgb(255,255,255)" fill-opacity="1" opacity="1" fill-rule="evenodd" d="M13.432560590094909 34.7768440246582L22.37518754321991 23.84697723388672L36.69507279712616 23.84697723388672L45.69611039478241 34.7768440246582L42.48144975025116 48.39533996582031L29.56433549243866 54.41552734375L16.64722123462616 48.39533996582031L13.432560590094909 34.7768440246582ZM14.893742230719909 35.069087982177734L17.81616654712616 47.40171813964844L29.56433549243866 52.8958740234375L41.31244340259491 47.40171813964844L44.17645707446991 35.069087982177734L36.05206742603241 25.191295623779297L23.01807084400116 25.191295623779297L14.893742230719909 35.069087982177734Z"/>
      </g>
      <g opacity="1">
        <path fill="rgb(255,255,255)" fill-opacity="1" opacity="1" fill-rule="evenodd" d="M13.432560590094909 24.957500457763672L16.64722123462616 11.397453308105469L29.56433549243866 5.318811416625977L42.42297807056366 11.339004516601562L45.63769975025116 24.957500457763672L36.69507279712616 35.887367248535156L22.37518754321991 35.887367248535156L13.432560590094909 24.957500457763672ZM17.75769486743866 12.332630157470703L14.893742230719909 24.665260314941406L23.01807084400116 34.543052673339844L36.05206742603241 34.543052673339844L44.11798539478241 24.665260314941406L41.25403275806366 12.332630157470703L29.50586381275116 6.838472366333008L17.75769486743866 12.332630157470703Z"/>
      </g>
      <g opacity="1">
        <path fill="rgb(255,255,255)" fill-opacity="1" opacity="1" fill-rule="evenodd" d="M27.98621049243866 6.020193099975586L40.90332475025116 0L53.76196732837616 6.020193099975586L56.97668900806366 19.638687133789062L48.03406205493866 30.568553924560547L33.71417680103241 30.568553924560547L24.77154984790741 19.638687133789062L27.98621049243866 6.020193099975586ZM29.15515580493866 7.013816833496094L26.29120316821991 19.28799819946289L34.41553178150116 29.224239349365234L47.44952836353241 29.224239349365234L55.57391801196991 19.346446990966797L52.65149369556366 7.013816833496094L40.90332475025116 1.5196609497070312L29.15515580493866 7.013816833496094Z"/>
      </g>
      <g opacity="1">
        <path fill="rgb(255,255,255)" fill-opacity="1" opacity="1" fill-rule="evenodd" d="M65.21789994556366 11.339004516601562L52.30078568775116 5.318811416625977L39.38367142993866 11.339004516601562L36.16901078540741 24.957500457763672L45.17004838306366 35.887367248535156L59.48993363696991 35.887367248535156L68.43256059009491 24.957500457763672L65.21789994556366 11.339004516601562ZM52.30078568775116 6.838472366333008L64.04895463306366 12.332630157470703L66.97137894946991 24.665260314941406L58.84698930103241 34.543052673339844L45.81299271900116 34.543052673339844L37.68866410571991 24.665260314941406L40.55261674243866 12.332630157470703L52.30078568775116 6.838472366333008Z"/>
      </g>
    </g>
  </g>
</svg>