<?xml version="1.0" encoding="utf-8"?>
<!-- Generator: Adobe Illustrator 24.0.3, SVG Export Plug-In . SVG Version: 6.00 Build 0)  -->
<svg version="1.1" id="Layer_1" xmlns="http://www.w3.org/2000/svg" xmlns:xlink="http://www.w3.org/1999/xlink" x="0px" y="0px"
	 viewBox="0 0 1280 560" style="enable-background:new 0 0 1280 560;" xml:space="preserve">
<style type="text/css">
	.st0{fill:#FFFFFF;}
</style>
<title>__LaEsquinaLA_logotipo_white</title>
<path class="st0" d="M306.6,445.3l1.2,1v4.8l-1.2,1.3h-21.9l-1.4-1.3v-28.8l1.4-1.1H306l1.3,1.1v4.9l-1.3,1.2H292v4.1h13l1.3,1.1
	v4.8l-1.3,1.2h-13v5.6L306.6,445.3z M325.2,445.3v-22.6l-1.3-1.4h-5.8l-1.1,1.4v28.5l1.1,1.3h20.2l1.1-1.3v-4.8l-1.1-1L325.2,445.3z
	 M384.7,421.3l-1.2,0.9l-4,15l-4-15l-1.2-0.9h-8.7l-1.2,1.1v28.8l1.2,1.3h5.4l1-1.3v-12.5l3.3,12.8l1.3,1h5.6l1.3-0.9l3.3-12.8v12.5
	l1.1,1.3h5.4l1.1-1.3v-28.8l-1.1-1.1H384.7z M413,445.3v-5.6h12.9l1.4-1.2v-4.8l-1.4-1.1H413v-4.1h14l1.3-1.2v-4.9l-1.3-1.1h-21.3
	l-1.4,1.1v28.8l1.4,1.3h21.9l1.3-1.3v-4.8l-1.3-1L413,445.3z M462.3,444.6l3.5,5.3l-1.1,1.3h-6.9l-1.2,0.1l-4.3-5.6
	c-0.9-1.5-2-2.8-3.2-4.1c-0.5-0.4-1.1-0.7-1.7-0.9c-1.1-0.2-2.3-0.3-3.4-0.3v10.7h-8v-28.8l2.9-0.2h12.2c3.3,0,5.6-0.2,7.1,0.3
	c1.6,0.4,3,1.4,4,2.8c1,1.6,1.5,3.4,1.5,5.2c0.2,3.8-2.2,7.3-5.9,8.6c0.4,0.3,0.7,0.6,1.1,1C460.2,441.4,461.3,442.9,462.3,444.6
	L462.3,444.6z M444,433.2h5c1.6,0.1,3.2,0,4.8-0.2c0.4-0.1,0.7-0.3,1-0.6c0.3-0.4,0.4-0.9,0.4-1.4c0-0.5-0.1-1-0.5-1.4
	c-0.4-0.4-0.9-0.5-1.4-0.6c-1.3,0.2-2.7,0.3-4,0.2H444V433.2z M493.1,439.4l-1.6,0.9c-0.2,1.5-0.9,2.9-2,4c-0.9,0.8-2,1.2-3.2,1.2
	c-1.6,0.1-3.1-0.6-4.1-1.9c-1.1-1.3-1.7-3.6-1.7-7c0-3.1,0.6-5.3,1.7-6.6c1.1-1.2,2.6-1.9,4.2-1.9c2.3-0.1,4.4,1.5,4.8,3.9l1.5,0.9
	l5.7-1.4l0.9-1.6c-0.5-2.2-1.7-4.2-3.3-5.9c-2.6-2.4-6-3.6-9.4-3.5c-4-0.1-7.9,1.4-10.7,4.4c-2.7,2.9-4,6.9-4,12
	c0,4.8,1.4,8.7,4,11.6c5,5,12.9,5.7,18.7,1.8c2.4-2,4.1-4.6,4.8-7.7l-0.8-1.5L493.1,439.4z M525.3,422l11.5,28.7l-1.2,1.7v0l0.2,0
	h-6.3l-1.2-0.9l-2.2-5.8h-9.8l-2.1,5.8l-1.2,0.9h-6.2l-1.2-1.7l11.2-28.7l1.2-0.7h6.1L525.3,422z M521.1,432.9l-2.1,5.8h4.2
	L521.1,432.9z M569.5,429.8c0.7,2.3,1.1,4.7,1,7.2c0,2.2-0.3,4.4-1,6.5c-0.7,2.1-1.8,3.9-3.4,5.4c-1.3,1.1-2.9,1.9-4.6,2.3
	c-1.4,0.4-3.2,0-5.5,0H544v-28.8l1.2-0.2h10.6c2.5,0,4.4-0.3,5.8,0.1c1.9,0.6,3.5,1.1,4.9,2.5C567.9,426.2,568.9,427.9,569.5,429.8
	L569.5,429.8z M552,445.2h3.3c1.1,0,2.1-0.1,3.2-0.3c0.7-0.2,1.3-0.5,1.8-1c0.6-0.6,1-1.4,1.2-2.2c0.4-1.6,0.6-3.2,0.5-4.9
	c0.1-1.6-0.1-3.2-0.5-4.7c-0.2-0.8-0.7-1.6-1.3-2.2c-0.6-0.5-1.3-0.8-2.1-0.9c-0.5-0.1-1.7,0.1-4.5,0.1H552V445.2z M580.5,421.3
	l-1.1,1.1v28.8l1.1,1.3h5.8l1.3-1.3v-28.8l-1.3-1.1H580.5z M596.2,421.3l-1.4,1.1v4.9l1.4,1.2h7.2v22.7l1.3,1.3h5.8l1.1-1.3v-22.7
	h7.5l1.2-1.2v-4.9l-1.2-1.1H596.2z M652.3,425c2.8,2.9,4.2,6.8,4.2,11.8c0,5-1.4,8.9-4.1,11.8c-2.9,2.9-6.9,4.5-11,4.3
	c-4.6,0-8.3-1.4-11.1-4.3c-2.7-2.8-4.1-6.8-4.1-11.7c-0.1-2.7,0.4-5.4,1.4-7.9c0.7-1.6,1.7-3.1,2.9-4.3c1.2-1.2,2.6-2.2,4.1-2.9
	c2.1-0.9,4.4-1.3,6.7-1.2C645.3,420.5,649.4,422.1,652.3,425L652.3,425z M646.1,430.1c-2.6-2.7-6.9-2.7-9.6-0.1c0,0-0.1,0.1-0.1,0.1
	c-1.2,1.4-1.9,3.6-1.9,6.6c0,2.9,0.7,5.1,1.9,6.6c2.4,2.6,6.5,2.8,9.2,0.4c0.1-0.1,0.3-0.2,0.4-0.4c1.3-1.4,1.9-3.7,1.9-6.7
	C647.9,433.7,647.3,431.5,646.1,430.1L646.1,430.1z M708.1,429.9c0.7,2.3,1.1,4.8,1,7.2c0,2.2-0.3,4.4-1,6.5c-0.7,2.1-1.8,4-3.4,5.6
	c-1.3,1.2-2.9,2.1-4.6,2.6c-1.8,0.5-3.7,0.7-5.5,0.7h-10.9l-1.2-1.3v-28.8l1.2-1.1h10.6c2-0.1,3.9,0.1,5.8,0.5
	c1.9,0.5,3.6,1.5,4.9,2.9C706.4,426.2,707.5,428,708.1,429.9L708.1,429.9z M690.7,445.3h3.2c1.1,0,2.2-0.1,3.2-0.3
	c0.7-0.2,1.3-0.5,1.8-1c0.6-0.6,1-1.4,1.2-2.2c0.4-1.6,0.6-3.3,0.5-4.9c0.1-1.6-0.1-3.2-0.5-4.7c-0.2-0.9-0.7-1.6-1.3-2.3
	c-0.6-0.5-1.3-0.9-2.1-1.1c-1.5-0.3-3-0.4-4.5-0.3h-1.4L690.7,445.3z M726.5,445.3v-5.6h13l1.3-1.2v-4.8l-1.3-1.1h-13v-4.1h14.1
	l1.3-1.2v-4.9l-1.3-1.1h-21.3l-1.4,1.1v28.8l1.4,1.3h21.9l1.2-1.3v-4.8l-1.2-1L726.5,445.3z M759.6,445.3v-22.6l-1.3-1.4h-5.8
	l-1.1,1.4v28.5l1.1,1.3h20.2l1.1-1.3v-4.8l-1.1-1L759.6,445.3z M823.9,437.7c1.1,1.5,1.7,3.3,1.7,5.1c0,1.5-0.4,3-1,4.4
	c-0.7,1.4-1.7,2.6-2.9,3.4c-1.3,0.9-2.9,1.4-4.5,1.6c-1,0.1-3.4,0.2-7.1,0.2h-9.8l-1.3-1.3v-28.8l1.3-1.1h11.5
	c1.8-0.1,3.5,0,5.3,0.2c2.6,0.3,4.8,1.9,6.1,4.1c0.7,1.2,1.1,2.6,1.1,4c0,2.3-1,4.5-2.7,6C822.5,436.2,823.3,436.9,823.9,437.7
	L823.9,437.7z M816,430.5c0-0.5-0.1-1-0.4-1.3c-0.4-0.4-0.9-0.6-1.4-0.6c-0.4,0-1.5-0.1-4.8-0.1h-2.3v4.1h2.8c2.7,0,3.7,0,4.1-0.1
	c0.6,0,1.2-0.2,1.6-0.6C815.9,431.5,816.1,431,816,430.5z M807.1,445.3h4.3c1.2,0.1,2.5,0,3.7-0.3c0.6-0.1,1.1-0.4,1.4-0.9
	c0.4-0.5,0.5-1,0.5-1.6c0-0.5-0.1-1.1-0.4-1.5c-0.3-0.4-0.7-0.7-1.2-0.9c-1.5-0.4-3.1-0.6-4.7-0.5h-3.6V445.3z M851.3,422l11.5,28.7
	l-1.1,1.7v0l-0.1,0h-6.3l-1.2-0.9l-2.2-5.8h-9.8l-2.1,5.8l-1.2,0.9h-6.2l-1.2-1.7l11.2-28.7l1.2-0.7h6.1L851.3,422z M847,432.9
	l-2.1,5.8h4.2L847,432.9z M894.6,444.6l3.5,5.3l-1.1,1.3h-6.9l-1.1,0.1l-4.2-5.6c-0.9-1.4-1.9-2.8-3-4.1c-0.4-0.4-0.8-0.7-1.3-0.9
	c-0.8-0.2-1.7-0.3-2.5-0.3v10.8l-1,0h-7v-28.8l1.2-0.2h12.2c3.3,0,5.6-0.2,7.1,0.3c1.6,0.4,3,1.4,4,2.8c1,1.6,1.5,3.4,1.5,5.2
	c0.2,3.8-2.2,7.3-5.9,8.6c0.4,0.3,0.7,0.6,1.1,1C892.4,441.4,893.6,442.9,894.6,444.6L894.6,444.6z M878,433.2h3.3
	c1.6,0.1,3.2,0,4.8-0.2c0.4-0.1,0.7-0.3,1-0.6c0.3-0.4,0.4-0.9,0.4-1.4c0-0.5-0.1-1-0.5-1.4c-0.4-0.3-0.9-0.5-1.4-0.6
	c-1.3,0.2-2.7,0.3-4,0.2H878V433.2z M930,444.9l3.5,5.6l-1.1,1.9h-6.9l-1-0.6l-4.2-6.3c-0.9-1.4-1.9-2.8-2.9-4.1
	c-0.3-0.4-0.7-0.7-1.2-0.9c-0.8-0.2-1.6-0.3-2.3-0.3v10.8l-1.4,1.3h-5.8l-1.4-1.3v-28.8l1.4-1.1h12.2c2.4-0.1,4.8,0.1,7.1,0.8
	c1.6,0.6,3,1.7,4,3.2c1,1.6,1.5,3.4,1.5,5.2c0.2,3.8-2.2,7.3-5.9,8.6c0.4,0.3,0.7,0.6,1.1,1C927.8,441.5,929,443.2,930,444.9
	L930,444.9z M913.8,433.5h2.9c3.6,0,4.6-0.3,4.8-0.4c0.4-0.2,0.8-0.5,1-0.8c0.3-0.4,0.4-0.9,0.4-1.5c0-0.6-0.1-1.1-0.5-1.5
	c-0.4-0.4-0.9-0.7-1.4-0.7c-1.3-0.1-2.7-0.2-4-0.1h-3.1V433.5z M941.8,421.3l-1.5,1.1v28.8l1.5,1.3h5.8l1.4-1.3v-28.8l-1.4-1.1
	H941.8z M983.4,425c2.8,2.9,4.2,6.8,4.2,11.8c0,5-1.4,8.9-4.1,11.8c-2.9,2.9-6.9,4.5-11,4.3c-4.6,0-8.3-1.4-11.1-4.3
	c-2.7-2.8-4.1-6.8-4.1-11.7c-0.1-2.7,0.4-5.4,1.4-7.9c0.7-1.6,1.7-3.1,2.9-4.3c1.2-1.2,2.6-2.2,4.1-2.9c2.1-0.9,4.4-1.3,6.7-1.2
	C976.5,420.5,980.5,422.1,983.4,425L983.4,425z M977.2,430.1c-2.6-2.7-6.9-2.7-9.6-0.1c0,0-0.1,0.1-0.1,0.1
	c-1.2,1.4-1.9,3.6-1.9,6.6c0,2.9,0.7,5.1,1.9,6.6c2.4,2.6,6.5,2.8,9.2,0.4c0.1-0.1,0.3-0.2,0.4-0.4c1.3-1.4,1.9-3.7,1.9-6.7
	C979.1,433.7,978.4,431.5,977.2,430.1z M229.2,302.5l-34.1,8l-34-143.7l-5-3.1l-23,5.4l-3.1,5l40,169.3l5,3.1l61.2-14.4l3.1-5
	l-5.1-21.5L229.2,302.5z M288,138.7l56.1,172.8l-3.3,5.4l-22.9,3.7l-4.7-2.9l-8.7-28.4l-19.4,3.1l1.1,29.6l-3.5,4.3l-22.9,3.7
	l-4.9-4l-3.7-181.4l3.5-4.2l28.4-4.6L288,138.7z M283.8,262l11.8-1.9l-14.7-50.7L283.8,262z M507.7,273.2l-4.5-3.9l-30.8,2.2
	l-3.7-51l27-1.9l3.9-4.5l-1.6-22.3l-4.5-3.9l-27.3,2l-3.2-44.2l31.1-2.2l3.9-4.5l-1.6-22.3l-4.5-3.9l-59.1,4.2l-3.9,4.5l12.9,179.1
	l4.5,3.9l59.1-4.3l3.9-4.5L507.7,273.2z M613.9,249.7c-0.3-10.9-2.4-24.7-15.9-44c-2.9-4.2-5.5-7.8-8.3-11.3
	c-1.1-1.4-2.1-2.9-3.1-4.3c-2.7-3.6-5.2-7-7.6-10.6c-8.3-12-11.8-19.2-12.2-32.3c-0.1-3.2-0.2-7.5,0.9-10.4c0.7-1.8,2-3.4,6.2-3.5
	l0.3,0c3.5,0,4.7,1.7,5.1,6.9c0,0.4,0.1,0.7,0.1,0.9l0.9,30.7l4.3,3.9l21.6-0.6l4.1-4.2l-0.9-30.9c-0.2-7.5-1.2-10.9-2.4-14.3
	c-4.4-12.1-15.2-18.8-30.6-18.8c-0.9,0-1.6,0-2.2,0l-0.2,0c-8.9,0.2-16.4,2.2-22.3,5.8c-5.4,3.2-17.7,13.4-17,37.6
	c0.6,20.9,10.9,35.9,15.2,42.3l0.3,0.4c3.3,5,6.9,9.9,10.3,14.6c4.1,5.6,8.4,11.4,12.2,17.4c6.6,10.2,8.5,16.3,8.9,28.1l0,0.5
	c0.3,10.7-0.6,15.8-6.8,16.1l-0.3,0c-1.6,0-3.1-0.4-4.4-1.3l-0.2-0.1c-1.9-1.1-3.3-2.7-3.5-11.1l-0.9-31.8l-4.3-4l-21.9,0.6
	l-4.1,4.2l0.8,28.9c0.3,10.8,1.3,21.2,9.7,30c3.8,4.1,12.4,11.1,28.2,11.1c0.5,0,1,0,1.5,0c6,0,11.9-1.2,17.4-3.5
	C612.6,283.3,614.1,259.6,613.9,249.7L613.9,249.7z M719.2,330.2l-4.1,4.1l-1.6,0c-2.1,0-4.4,0.1-6.8,0.1c-6.8,0-11.8-0.4-15.6-1.4
	c-20.9-4.7-22.8-21.9-23.3-35.7c-4-1.2-7.8-3.1-11.2-5.5c-10-7.3-14.7-19.5-14.2-36.4l0-0.7l1.5-89.6c0-6.8,0.4-16.3,1.7-23.2
	c1.5-9.3,6.3-17.7,13.6-23.6c7.3-6.2,16.6-9.4,27.5-9.4c0.7,0,1.3,0,1.8,0c4.8,0.1,19.3,0.3,30.2,13.7c9.7,11.7,9.4,26.9,9.2,40.3
	l-1.5,85.5c0,1.8-0.1,3.6-0.2,5.4c-0.1,1.8-0.2,3.6-0.2,5.5l0,0.3c0,0.3,0,0.7-0.1,1.1c-0.3,5.3-1.2,19.3-11.4,28.9
	c-3.5,3.2-7.7,5.7-12.3,7.3c-1.8,0.7-3.6,1.2-5.5,1.6l0,1.3c0,2.7,0.9,3.4,1.3,3.6c1.1,0.7,3.1,1.1,5.9,1.2
	c3.6,0.1,7.3-0.1,10.9-0.5l4.7,4.2L719.2,330.2z M675,266.4l0.1,0.3c0.6,2.4,2.7,5.2,9,5.5l0.3-0.1h0c2.7,0,4.8-0.4,6.3-1.5
	c3.1-2.4,3.8-8,3.9-19.1l1.6-95.9c0-0.9,0-1.9-0.1-2.8c0-1.1-0.1-2.1-0.1-3.2l0-0.5c-0.3-7-1.9-11-9.3-11.1l-0.3,0
	c-3.2,0-7.4,1-9.1,5.7l-0.1,0.2c-0.7,1.9-1.1,4-1.1,6l-1.8,106.1C674.3,263.5,674.8,265.8,675,266.4L675,266.4z M842,255.6
	l8.9-135.8l-3.9-4.5l-23.4-1.5l-4.4,3.9l-9,137.1c-0.8,11.7-1.4,16.4-5.1,19.2c-1.5,1-3.4,1.5-5.2,1.4c-0.6,0-1,0-1.3-0.1
	c-5.8-0.4-7.4-3.1-8.2-5.8c-1.2-3.9-0.9-9.3-0.6-14l9.1-139.1l-3.9-4.5l-23.1-1.5l-4.4,3.9l-9.2,139.9c-0.7,10.5-0.2,16.5,1.8,22.7
	c6.6,22,27.3,25.7,35.9,26.2c1.3,0.1,2.6,0.1,3.8,0.1c11,0,30.6-3.3,38.3-25.4C840.8,269.9,841.7,259.6,842,255.6L842,255.6z
	 M920.9,123.7l-23.3-2.5l-4.6,3.7l-19.5,178.5l3.7,4.6l23.3,2.5l4.6-3.7l19.5-178.5L920.9,123.7z M1047.2,143.3l-22.1-3.5l-4.8,3.5
	l-12.6,83.3l-5.9-87.2l-3.5-3.8l-25.1-4l-4.8,3.5l-28.4,177.3l3.5,4.8l21.9,3.5l4.8-3.5l12.9-89l5.2,92.9l3.5,3.9l25.9,4.1l4.8-3.5
	l28.4-177.3L1047.2,143.3z M1150,169.5l-15.2,181.1l-5.2,3.7l-22.5-5.4l-3.2-4.5l2.9-29.6l-19.1-4.6l-10.4,27.7l-4.9,2.6l-22.5-5.4
	l-2.9-5.6l66.9-168.6l4.9-2.5l27.9,6.7L1150,169.5z M1110,284.5l6-52.4l-17.7,49.6L1110,284.5z"/>
</svg>
